<svg width="40" height="40" viewBox="0 0 40 40" fill="none" xmlns="http://www.w3.org/2000/svg">
<path d="M14.1667 18.3333C15.5475 18.3333 16.6667 17.2139 16.6667 15.8333C16.6667 14.4525 15.5475 13.3333 14.1667 13.3333C12.786 13.3333 11.6667 14.4525 11.6667 15.8333C11.6667 17.2139 12.786 18.3333 14.1667 18.3333Z" fill="#0F0F0F"/>
<path d="M28.3333 15.8333C28.3333 17.2139 27.2139 18.3333 25.8333 18.3333C24.4526 18.3333 23.3333 17.2139 23.3333 15.8333C23.3333 14.4525 24.4526 13.3333 25.8333 13.3333C27.2139 13.3333 28.3333 14.4525 28.3333 15.8333Z" fill="#0F0F0F"/>
<path d="M25.1819 27.4314C25.5996 28.2406 26.5914 28.5659 27.4082 28.1574C28.2314 27.7457 28.5652 26.7447 28.1536 25.9214C28.0161 25.6474 27.8411 25.3906 27.6576 25.1459C27.3529 24.7397 26.8931 24.2166 26.2456 23.6986C24.9297 22.6459 22.9011 21.6667 19.9962 21.6667C17.0912 21.6667 15.0626 22.6459 13.7467 23.6986C13.0993 24.2166 12.6394 24.7397 12.3347 25.1459C12.1506 25.3914 11.9831 25.6482 11.8397 25.9196C11.432 26.7321 11.7712 27.7509 12.5841 28.1574C13.401 28.5659 14.3928 28.2406 14.8104 27.4314C14.8334 27.3899 15.147 26.8471 15.829 26.3016C16.5964 25.6876 17.9011 25.0001 19.9962 25.0001C22.0912 25.0001 23.3959 25.6876 24.1634 26.3016C24.8454 26.8471 25.1589 27.3899 25.1819 27.4314Z" fill="#0F0F0F"/>
<path fill-rule="evenodd" clip-rule="evenodd" d="M20.0001 38.3334C30.1252 38.3334 38.3334 30.1252 38.3334 20.0001C38.3334 9.87486 30.1252 1.66675 20.0001 1.66675C9.87486 1.66675 1.66675 9.87486 1.66675 20.0001C1.66675 30.1252 9.87486 38.3334 20.0001 38.3334ZM20.0001 34.9887C11.7221 34.9887 5.01146 28.2781 5.01146 20.0001C5.01146 11.7221 11.7221 5.01146 20.0001 5.01146C28.2781 5.01146 34.9887 11.7221 34.9887 20.0001C34.9887 28.2781 28.2781 34.9887 20.0001 34.9887Z" fill="#0F0F0F"/>
</svg>
