<svg width="40" height="40" viewBox="0 0 40 40" fill="none" xmlns="http://www.w3.org/2000/svg">
<path d="M14.1667 18.3333C15.5475 18.3333 16.6667 17.2139 16.6667 15.8333C16.6667 14.4525 15.5475 13.3333 14.1667 13.3333C12.786 13.3333 11.6667 14.4525 11.6667 15.8333C11.6667 17.2139 12.786 18.3333 14.1667 18.3333Z" fill="#0F0F0F"/>
<path d="M28.3333 15.8333C28.3333 17.2139 27.2139 18.3333 25.8333 18.3333C24.4526 18.3333 23.3333 17.2139 23.3333 15.8333C23.3333 14.4525 24.4526 13.3333 25.8333 13.3333C27.2139 13.3333 28.3333 14.4525 28.3333 15.8333Z" fill="#0F0F0F"/>
<path d="M14.8147 22.5691C14.3971 21.7599 13.4052 21.4346 12.5884 21.8431C11.7651 22.2548 11.4314 23.2559 11.8431 24.0791C11.9805 24.3531 12.1555 24.6099 12.339 24.8546C12.6437 25.2609 13.1036 25.7841 13.7509 26.3019C15.0668 27.3546 17.0956 28.3338 20.0004 28.3338C22.9052 28.3338 24.9341 27.3546 26.2499 26.3019C26.8972 25.7841 27.3572 25.2609 27.6619 24.8546C27.8461 24.6091 28.0136 24.3523 28.1569 24.0809C28.5646 23.2684 28.2254 22.2496 27.4124 21.8431C26.5956 21.4346 25.6037 21.7599 25.1862 22.5691C25.1632 22.6106 24.8496 23.1534 24.1676 23.6991C23.4002 24.3129 22.0956 25.0004 20.0004 25.0004C17.9052 25.0004 16.6007 24.3129 15.8333 23.6991C15.1513 23.1534 14.8377 22.6106 14.8147 22.5691Z" fill="#0F0F0F"/>
<path fill-rule="evenodd" clip-rule="evenodd" d="M20.0001 38.3334C30.1252 38.3334 38.3334 30.1252 38.3334 20.0001C38.3334 9.87486 30.1252 1.66675 20.0001 1.66675C9.87486 1.66675 1.66675 9.87486 1.66675 20.0001C1.66675 30.1252 9.87486 38.3334 20.0001 38.3334ZM20.0001 34.9887C11.7221 34.9887 5.01146 28.2781 5.01146 20.0001C5.01146 11.7221 11.7221 5.01146 20.0001 5.01146C28.2781 5.01146 34.9887 11.7221 34.9887 20.0001C34.9887 28.2781 28.2781 34.9887 20.0001 34.9887Z" fill="#0F0F0F"/>
</svg>
