<svg width="40" height="40" viewBox="0 0 40 40" fill="none" xmlns="http://www.w3.org/2000/svg">
<path d="M14.1667 18.3333C15.5475 18.3333 16.6667 17.2139 16.6667 15.8333C16.6667 14.4525 15.5475 13.3333 14.1667 13.3333C12.786 13.3333 11.6667 14.4525 11.6667 15.8333C11.6667 17.2139 12.786 18.3333 14.1667 18.3333Z" fill="#0F0F0F"/>
<path d="M28.3333 15.8333C28.3333 17.2139 27.2139 18.3333 25.8333 18.3333C24.4526 18.3333 23.3333 17.2139 23.3333 15.8333C23.3333 14.4525 24.4526 13.3333 25.8333 13.3333C27.2139 13.3333 28.3333 14.4525 28.3333 15.8333Z" fill="#0F0F0F"/>
<path d="M13.3334 23.3333C12.4129 23.3333 11.6667 24.0794 11.6667 24.9999C11.6667 25.9204 12.4129 26.6666 13.3334 26.6666H26.6652C27.5857 26.6666 28.3334 25.9204 28.3334 24.9999C28.3334 24.0794 27.5872 23.3333 26.6667 23.3333H13.3334Z" fill="#0F0F0F"/>
<path fill-rule="evenodd" clip-rule="evenodd" d="M20.0001 38.3334C30.1252 38.3334 38.3334 30.1252 38.3334 20.0001C38.3334 9.87486 30.1252 1.66675 20.0001 1.66675C9.87486 1.66675 1.66675 9.87486 1.66675 20.0001C1.66675 30.1252 9.87486 38.3334 20.0001 38.3334ZM20.0001 34.9887C11.7221 34.9887 5.01146 28.2781 5.01146 20.0001C5.01146 11.7221 11.7221 5.01146 20.0001 5.01146C28.2781 5.01146 34.9887 11.7221 34.9887 20.0001C34.9887 28.2781 28.2781 34.9887 20.0001 34.9887Z" fill="#0F0F0F"/>
</svg>
