<svg width="40" height="40" viewBox="0 0 40 40" fill="none" xmlns="http://www.w3.org/2000/svg">
<path d="M16.6667 15.8333C16.6667 17.2139 15.5475 18.3333 14.1667 18.3333C12.786 18.3333 11.6667 17.2139 11.6667 15.8333C11.6667 14.4525 12.786 13.3333 14.1667 13.3333C15.5475 13.3333 16.6667 14.4525 16.6667 15.8333Z" fill="#0F0F0F"/>
<path d="M25.8333 18.3333C27.2139 18.3333 28.3333 17.2139 28.3333 15.8333C28.3333 14.4525 27.2139 13.3333 25.8333 13.3333C24.4526 13.3333 23.3333 14.4525 23.3333 15.8333C23.3333 17.2139 24.4526 18.3333 25.8333 18.3333Z" fill="#0F0F0F"/>
<path fill-rule="evenodd" clip-rule="evenodd" d="M38.3334 20.0001C38.3334 30.1252 30.1252 38.3334 20.0001 38.3334C9.87486 38.3334 1.66675 30.1252 1.66675 20.0001C1.66675 9.87486 9.87486 1.66675 20.0001 1.66675C30.1252 1.66675 38.3334 9.87486 38.3334 20.0001ZM5.01146 20.0001C5.01146 28.2781 11.7221 34.9887 20.0001 34.9887C28.2781 34.9887 34.9887 28.2781 34.9887 20.0001C34.9887 11.7221 28.2781 5.01146 20.0001 5.01146C11.7221 5.01146 5.01146 11.7221 5.01146 20.0001Z" fill="#0F0F0F"/>
</svg>
