<svg width="85" height="85" viewBox="0 0 85 85" fill="none" xmlns="http://www.w3.org/2000/svg">
<rect width="85" height="85" rx="10" fill="#152B53"/>
<path fill-rule="evenodd" clip-rule="evenodd" d="M35.6963 20H20.5654V35.1309H25.6091V25.0436H35.6963V20ZM20.5654 65.3927V50.2618H25.6091V60.349H35.6963V65.3927H20.5654ZM50.8272 20V25.0436H60.9145V35.1309H65.9581V20H50.8272ZM60.9145 50.2618H65.9581V65.3927H50.8272V60.349H60.9145V50.2618ZM30.6527 30.0873H40.74V40.1745H30.6527V30.0873ZM30.6527 45.2182H40.74V55.3054H30.6527V45.2182ZM55.8709 30.0873H45.7836V40.1745H55.8709V30.0873ZM45.7836 45.2182H55.8709V55.3054H45.7836V45.2182Z" fill="white"/>
</svg>
