<svg width="172" height="161" viewBox="0 0 172 161" fill="none" xmlns="http://www.w3.org/2000/svg">
<g clip-path="url(#clip0_10_6)">
<path d="M1.71449 148.325C1.56186 148.176 1.44063 147.999 1.35788 147.803C1.27512 147.608 1.23251 147.398 1.23251 147.186C1.23251 146.973 1.27512 146.763 1.35788 146.568C1.44063 146.372 1.56186 146.195 1.71449 146.046C1.87566 145.894 2.06571 145.775 2.2736 145.697C2.48149 145.618 2.70308 145.581 2.92552 145.588C3.14687 145.581 3.36728 145.619 3.574 145.697C3.78071 145.776 3.96961 145.895 4.12974 146.046C4.28238 146.195 4.40361 146.372 4.48636 146.568C4.56911 146.763 4.61173 146.973 4.61173 147.186C4.61173 147.398 4.56911 147.608 4.48636 147.803C4.40361 147.999 4.28238 148.176 4.12974 148.325C3.96961 148.477 3.78071 148.595 3.574 148.674C3.36728 148.753 3.14687 148.79 2.92552 148.783C2.70308 148.79 2.48149 148.753 2.2736 148.675C2.06571 148.596 1.87566 148.477 1.71449 148.325ZM4.27942 150.064V160.852H1.55801V150.064H4.27942Z" fill="#152B53"/>
<path d="M16.1584 151.109C16.572 151.566 16.8908 152.098 17.0962 152.677C17.3017 153.255 17.3899 153.868 17.3558 154.48V160.805H14.6344V154.851C14.6819 154.135 14.4506 153.428 13.9881 152.876C13.7582 152.646 13.4817 152.467 13.1767 152.35C12.8718 152.234 12.5454 152.183 12.2191 152.202C11.8887 152.182 11.5578 152.232 11.2483 152.348C10.9387 152.465 10.6575 152.644 10.423 152.876C9.94313 153.42 9.69873 154.13 9.74265 154.851V160.805H7.02124V150.017H9.74265V151.366C10.1185 150.895 10.601 150.518 11.151 150.267C11.7372 149.998 12.3762 149.862 13.022 149.869C13.6031 149.848 14.1824 149.947 14.7225 150.161C15.2627 150.374 15.7518 150.697 16.1584 151.109Z" fill="#152B53"/>
<path d="M29.1395 151.109C29.5532 151.566 29.8719 152.098 30.0774 152.677C30.2829 153.255 30.3711 153.868 30.3369 154.48V160.804H27.6155V154.851C27.6631 154.135 27.4318 153.428 26.9692 152.876C26.7393 152.646 26.4628 152.467 26.1578 152.35C25.8529 152.234 25.5265 152.183 25.2003 152.202C24.8698 152.182 24.539 152.232 24.2294 152.348C23.9199 152.465 23.6386 152.644 23.4041 152.876C22.9243 153.42 22.6799 154.13 22.7238 154.851V160.804H20.0024V150.017H22.7238V151.366C23.0986 150.896 23.5784 150.52 24.1253 150.267C24.7141 149.999 25.3553 149.863 26.0031 149.869C26.5842 149.848 27.1632 149.948 27.7032 150.162C28.2432 150.375 28.7324 150.698 29.1395 151.109Z" fill="#152B53"/>
<path d="M34.9497 160.312C34.1182 159.859 33.4339 159.181 32.9767 158.357C32.4996 157.459 32.2652 156.453 32.2964 155.438C32.2749 154.417 32.5285 153.41 33.0311 152.519C33.5112 151.689 34.2189 151.011 35.0722 150.563C35.9504 150.106 36.9275 149.867 37.9195 149.867C38.9114 149.867 39.8885 150.106 40.7667 150.563C41.62 151.011 42.3278 151.689 42.8078 152.519C43.3104 153.41 43.5641 154.417 43.5426 155.438C43.5629 156.461 43.3018 157.47 42.7874 158.357C42.3024 159.183 41.5959 159.86 40.7463 160.312C39.8594 160.773 38.8697 161.005 37.8684 160.987C36.8525 161.021 35.8455 160.789 34.9497 160.312ZM39.1815 158.29C39.6309 158.039 39.9972 157.664 40.2361 157.211C40.5085 156.667 40.6417 156.065 40.6239 155.458C40.6581 155.023 40.6041 154.585 40.465 154.17C40.326 153.756 40.1047 153.373 39.8143 153.044C39.5583 152.777 39.2488 152.565 38.9056 152.422C38.5624 152.279 38.193 152.209 37.8208 152.215C37.4514 152.207 37.0845 152.276 36.7443 152.419C36.4041 152.562 36.0985 152.775 35.8478 153.044C35.3394 153.728 35.0652 154.555 35.0652 155.404C35.0652 156.253 35.3394 157.08 35.8478 157.764C36.0937 158.033 36.3956 158.247 36.7326 158.39C37.0696 158.533 37.4339 158.602 37.8004 158.593C38.2808 158.601 38.7555 158.49 39.1815 158.27V158.29Z" fill="#152B53"/>
<path d="M50.0127 158.317L52.7342 150.044H55.6597L51.6388 160.831H48.3051L44.2978 150.044H47.2437L50.0127 158.317Z" fill="#152B53"/>
<path d="M57.1905 152.498C57.5931 151.697 58.2126 151.022 58.9798 150.55C59.7412 150.096 60.6155 149.863 61.5039 149.876C62.1971 149.856 62.8849 150.002 63.5098 150.3C64.1347 150.598 64.6786 151.039 65.0962 151.588V150.051H67.8652V160.838H65.0962V159.267C64.717 159.795 64.2153 160.225 63.6334 160.521C62.9691 160.86 62.2302 161.029 61.4835 161.013C60.6007 161.033 59.731 160.799 58.9798 160.339C58.2116 159.856 57.5925 159.173 57.1905 158.364C56.7314 157.456 56.4981 156.453 56.5101 155.438C56.4922 154.418 56.7257 153.409 57.1905 152.498ZM64.6743 153.732C64.4322 153.277 64.0639 152.901 63.613 152.647C63.1805 152.393 62.6868 152.26 62.1842 152.262C61.6878 152.26 61.1996 152.388 60.7691 152.633C60.3258 152.892 59.9614 153.265 59.7146 153.712C59.4381 154.231 59.3 154.811 59.3132 155.397C59.3015 155.99 59.4395 156.576 59.7146 157.103C59.9611 157.562 60.3277 157.946 60.7759 158.215C61.1996 158.473 61.6873 158.608 62.1842 158.607C62.6862 158.611 63.1799 158.481 63.613 158.229C64.0649 157.973 64.4332 157.594 64.6743 157.137C64.9285 156.611 65.0605 156.035 65.0605 155.451C65.0605 154.868 64.9285 154.292 64.6743 153.766V153.732Z" fill="#152B53"/>
<path d="M73.757 152.283V157.501C73.7436 157.643 73.7603 157.787 73.806 157.923C73.8516 158.059 73.9253 158.184 74.0224 158.29C74.2791 158.477 74.5965 158.563 74.9136 158.532H76.1995V160.825H74.4714C72.1537 160.825 70.9948 159.701 70.9948 157.454V152.256H69.6953V150.017H70.9948V147.32H73.7638V150.017H76.1995V152.256L73.757 152.283Z" fill="#152B53"/>
<path d="M78.363 148.325C78.2104 148.176 78.0892 147.999 78.0064 147.803C77.9237 147.608 77.8811 147.398 77.8811 147.186C77.8811 146.973 77.9237 146.763 78.0064 146.568C78.0892 146.372 78.2104 146.195 78.363 146.046C78.5232 145.895 78.7121 145.776 78.9188 145.697C79.1255 145.619 79.3459 145.581 79.5673 145.588C80.0162 145.576 80.4515 145.741 80.7783 146.046C80.9293 146.196 81.0491 146.373 81.1308 146.569C81.2125 146.764 81.2546 146.974 81.2546 147.186C81.2546 147.397 81.2125 147.607 81.1308 147.802C81.0491 147.998 80.9293 148.175 80.7783 148.325C80.4515 148.63 80.0162 148.795 79.5673 148.783C79.3459 148.79 79.1255 148.753 78.9188 148.674C78.7121 148.595 78.5232 148.477 78.363 148.325ZM80.9212 150.064V160.852H78.1998V150.064H80.9212Z" fill="#152B53"/>
<path d="M85.636 160.312C84.8045 159.859 84.1201 159.181 83.663 158.357C83.1859 157.459 82.9515 156.453 82.9826 155.438C82.9611 154.417 83.2148 153.41 83.7174 152.519C84.1975 151.689 84.9052 151.011 85.7585 150.563C86.6367 150.106 87.6138 149.867 88.6058 149.867C89.5977 149.867 90.5748 150.106 91.453 150.563C92.3048 151.013 93.012 151.69 93.4941 152.519C93.9967 153.41 94.2504 154.417 94.2289 155.438C94.2492 156.461 93.9881 157.47 93.4737 158.357C92.9887 159.183 92.2822 159.86 91.4326 160.312C90.5457 160.773 89.556 161.005 88.5547 160.987C87.5388 161.021 86.5318 160.789 85.636 160.312ZM89.8678 158.29C90.3166 158.04 90.6811 157.665 90.9156 157.211C91.1936 156.669 91.3293 156.066 91.3102 155.458C91.3441 155.022 91.2887 154.583 91.1472 154.168C91.0057 153.753 90.7811 153.371 90.4869 153.044C90.2317 152.776 89.9225 152.563 89.5791 152.42C89.2357 152.277 88.8658 152.207 88.4935 152.215C88.1242 152.208 87.7575 152.278 87.4175 152.421C87.0774 152.564 86.7718 152.776 86.5205 153.044C86.0121 153.728 85.7379 154.555 85.7379 155.404C85.7379 156.253 86.0121 157.08 86.5205 157.764C86.7677 158.033 87.0708 158.247 87.4089 158.39C87.747 158.533 88.1123 158.603 88.4799 158.593C88.9626 158.602 89.4398 158.491 89.8678 158.27V158.29Z" fill="#152B53"/>
<path d="M105.332 151.109C105.746 151.566 106.065 152.098 106.27 152.677C106.476 153.255 106.564 153.868 106.53 154.48V160.805H103.808V154.851C103.856 154.135 103.624 153.428 103.162 152.876C102.932 152.646 102.656 152.467 102.351 152.35C102.046 152.234 101.719 152.183 101.393 152.202C101.063 152.182 100.732 152.232 100.422 152.348C100.113 152.465 99.8313 152.644 99.5968 152.876C99.117 153.42 98.8726 154.13 98.9165 154.851V160.805H96.1951V150.017H98.9165V151.366C99.2923 150.895 99.7748 150.518 100.325 150.267C100.911 149.998 101.55 149.862 102.196 149.869C102.777 149.848 103.356 149.947 103.896 150.161C104.437 150.374 104.926 150.697 105.332 151.109Z" fill="#152B53"/>
<path d="M118.803 152.282H116.898V160.825H114.109V152.282H112.871V150.044H114.109V149.498C114.063 148.957 114.142 148.414 114.34 147.908C114.538 147.402 114.85 146.947 115.252 146.579C116.246 145.898 117.451 145.59 118.654 145.709V148.001C118.175 147.949 117.693 148.066 117.293 148.332C117.142 148.504 117.029 148.706 116.961 148.924C116.893 149.142 116.872 149.372 116.898 149.599V150.044H118.803V152.282Z" fill="#152B53"/>
<path d="M122.593 160.312C121.761 159.859 121.077 159.181 120.62 158.357C120.143 157.459 119.908 156.453 119.939 155.438C119.918 154.417 120.172 153.41 120.674 152.519C121.154 151.689 121.862 151.011 122.715 150.563C123.593 150.106 124.571 149.867 125.563 149.867C126.554 149.867 127.532 150.106 128.41 150.563C129.263 151.011 129.971 151.689 130.451 152.519C130.953 153.41 131.207 154.417 131.186 155.438C131.206 156.461 130.945 157.47 130.43 158.357C129.946 159.183 129.239 159.86 128.389 160.312C127.502 160.773 126.513 161.005 125.512 160.987C124.496 161.021 123.489 160.789 122.593 160.312ZM126.825 158.29C127.274 158.039 127.64 157.664 127.879 157.211C128.152 156.667 128.285 156.065 128.267 155.458C128.323 154.594 128.032 153.743 127.457 153.092C127.201 152.824 126.892 152.612 126.549 152.469C126.205 152.326 125.836 152.256 125.464 152.262C125.094 152.254 124.727 152.323 124.387 152.466C124.047 152.609 123.741 152.822 123.491 153.092C122.983 153.775 122.708 154.602 122.708 155.451C122.708 156.301 122.983 157.127 123.491 157.811C123.737 158.081 124.039 158.294 124.376 158.437C124.713 158.58 125.077 158.65 125.443 158.64C125.928 158.634 126.403 158.506 126.825 158.27V158.29Z" fill="#152B53"/>
<path d="M137.254 150.348C137.85 150.017 138.524 149.849 139.207 149.862V152.721H138.479C137.774 152.668 137.075 152.885 136.526 153.328C136.275 153.614 136.085 153.949 135.968 154.31C135.852 154.672 135.81 155.053 135.846 155.431V160.825H133.125V150.037H135.846V151.696C136.192 151.135 136.677 150.671 137.254 150.348Z" fill="#152B53"/>
<path d="M151.324 150.044V160.831H148.555V159.483C148.199 159.954 147.732 160.332 147.194 160.582C146.617 160.854 145.984 160.993 145.344 160.987C144.557 161.001 143.779 160.815 143.085 160.447C142.423 160.086 141.885 159.536 141.541 158.87C141.15 158.101 140.958 157.249 140.983 156.388V150.064H143.704V156.004C143.658 156.72 143.889 157.427 144.35 157.98C144.58 158.21 144.857 158.389 145.162 158.505C145.467 158.621 145.793 158.672 146.119 158.654C146.449 158.673 146.779 158.623 147.087 158.507C147.395 158.391 147.676 158.211 147.909 157.98C148.37 157.427 148.601 156.72 148.555 156.004V150.064L151.324 150.044Z" fill="#152B53"/>
<path d="M170.769 151.109C171.191 151.561 171.517 152.092 171.727 152.671C171.937 153.251 172.028 153.866 171.993 154.48V160.804H169.272V154.851C169.311 154.143 169.066 153.447 168.591 152.916C168.361 152.687 168.084 152.508 167.78 152.392C167.475 152.276 167.149 152.225 166.823 152.242C166.495 152.225 166.169 152.277 165.863 152.393C165.557 152.509 165.279 152.687 165.047 152.916C164.809 153.178 164.627 153.484 164.51 153.816C164.393 154.148 164.345 154.5 164.366 154.851V160.804H161.645V154.851C161.693 154.147 161.461 153.453 160.999 152.916C160.768 152.687 160.492 152.508 160.187 152.392C159.882 152.276 159.556 152.225 159.23 152.242C158.9 152.224 158.569 152.275 158.26 152.391C157.951 152.507 157.669 152.686 157.434 152.916C156.959 153.447 156.714 154.143 156.753 154.851V160.804H154.032V150.017H156.753V151.325C157.111 150.863 157.579 150.495 158.114 150.253C158.689 149.988 159.317 149.854 159.951 149.862C160.743 149.851 161.526 150.034 162.23 150.395C162.887 150.744 163.426 151.276 163.781 151.925C164.144 151.295 164.676 150.777 165.319 150.428C166.184 149.963 167.173 149.778 168.15 149.899C169.126 150.02 170.039 150.441 170.762 151.103L170.769 151.109Z" fill="#152B53"/>
<path d="M4.8169 140.336C3.78178 139.89 2.88986 139.172 2.23836 138.259C1.61532 137.385 1.26518 136.349 1.23144 135.279H3.55144C3.65822 136.346 4.15995 137.335 4.95977 138.057C5.97659 138.916 7.2938 139.345 8.62687 139.25C9.9006 139.319 11.1544 138.915 12.1443 138.118C12.5636 137.765 12.8979 137.325 13.1228 136.827C13.3476 136.33 13.4573 135.79 13.4438 135.245C13.4856 134.436 13.232 133.639 12.7294 133C12.2531 132.431 11.6369 131.992 10.9401 131.726C9.97844 131.362 8.99723 131.052 8.00095 130.796C6.81574 130.497 5.65385 130.114 4.52435 129.649C3.65218 129.268 2.89494 128.669 2.32681 127.91C1.67864 126.978 1.36045 125.858 1.42194 124.728C1.40502 123.665 1.7108 122.622 2.29959 121.734C2.90738 120.83 3.76131 120.115 4.76247 119.671C5.91098 119.154 7.16162 118.899 8.42277 118.923C10.1789 118.838 11.9102 119.36 13.3213 120.399C13.9201 120.857 14.4193 121.429 14.7888 122.083C15.1583 122.736 15.3904 123.457 15.4712 124.202H13.09C12.91 123.259 12.387 122.415 11.6204 121.829C10.6497 121.087 9.44236 120.716 8.21866 120.784C7.03406 120.743 5.8722 121.113 4.93256 121.829C4.50234 122.165 4.15892 122.598 3.93062 123.091C3.70232 123.585 3.59567 124.125 3.61948 124.667C3.58019 125.465 3.8367 126.249 4.34065 126.872C4.8266 127.433 5.44308 127.868 6.13678 128.139C7.09535 128.505 8.07442 128.816 9.0691 129.07C10.2417 129.382 11.3918 129.771 12.5117 130.236C13.3916 130.623 14.1574 131.227 14.7364 131.989C15.3836 132.917 15.7018 134.031 15.6413 135.158C15.639 136.174 15.3592 137.171 14.8317 138.043C14.2565 138.979 13.4296 139.738 12.4437 140.235C11.259 140.817 9.94884 141.104 8.62687 141.071C7.31817 141.102 6.01823 140.851 4.8169 140.336Z" fill="#152B53"/>
<path d="M41.2906 119.449V140.868H39.0931V123.764L31.3915 140.868H29.7927L22.0911 123.824V140.868H19.9003V119.449H22.2135L30.5751 138.01L38.9366 119.449H41.2906Z" fill="#152B53"/>
<path d="M58.9526 135.717H48.9854L47.0736 140.868H44.7604L52.7478 119.449H55.2242L63.1776 140.868H60.8576L58.9526 135.717ZM58.2722 133.917L53.952 122.179L49.6658 133.917H58.2722Z" fill="#152B53"/>
<path d="M78.3358 140.868L72.893 131.8H68.8517V140.868H66.6746V119.172H73.2468C75.6893 119.172 77.5466 119.752 78.8053 120.912C79.434 121.491 79.929 122.199 80.2566 122.985C80.5842 123.772 80.7366 124.619 80.7035 125.469C80.7465 126.935 80.2645 128.368 79.3427 129.515C78.3058 130.689 76.8754 131.453 75.3151 131.665L80.962 140.868H78.3358ZM68.8789 130.034H73.2944C75.0021 130.034 76.2948 129.623 77.1588 128.793C77.598 128.36 77.9405 127.84 78.1644 127.268C78.3882 126.695 78.4883 126.083 78.4583 125.469C78.4968 124.862 78.4051 124.254 78.1894 123.685C77.9736 123.115 77.6386 122.598 77.2064 122.166C76.3673 121.393 75.052 121.006 73.2604 121.006H68.8789V130.034Z" fill="#152B53"/>
<path d="M97.8756 119.172V120.972H91.8V140.868H89.6093V120.972H83.4861V119.172H97.8756Z" fill="#152B53"/>
<path d="M110.34 124.276C111.233 122.637 112.565 121.275 114.19 120.339C115.843 119.39 117.723 118.901 119.633 118.923C121.854 118.86 124.042 119.461 125.913 120.649C127.676 121.818 129.01 123.521 129.716 125.503H127.158C126.579 124.093 125.58 122.891 124.294 122.058C122.935 121.267 121.392 120.84 119.816 120.818C118.24 120.797 116.686 121.182 115.306 121.937C114.006 122.695 112.955 123.81 112.279 125.146C111.555 126.661 111.178 128.315 111.175 129.991C111.171 131.667 111.541 133.323 112.258 134.841C112.941 136.169 113.991 137.278 115.286 138.037C116.667 138.785 118.22 139.167 119.794 139.149C121.368 139.13 122.91 138.71 124.273 137.929C125.548 137.116 126.547 135.941 127.138 134.558H129.702C128.989 136.527 127.649 138.214 125.886 139.365C124.014 140.536 121.833 141.129 119.62 141.071C117.711 141.092 115.831 140.605 114.177 139.661C112.557 138.725 111.225 137.368 110.326 135.738C109.398 133.967 108.913 132.002 108.913 130.007C108.913 128.012 109.398 126.046 110.326 124.276H110.34Z" fill="#152B53"/>
<path d="M136.268 119.172V140.868H134.077V119.172H136.268Z" fill="#152B53"/>
<path d="M154.059 119.172V120.972H147.984V140.868H145.793V120.972H139.67V119.172H154.059Z" fill="#152B53"/>
<path d="M172 119.172L164.986 132.427V140.868H162.795V132.427L155.719 119.172H158.189L163.89 130.438L169.558 119.172H172Z" fill="#152B53"/>
<path d="M7.62675 57.3748C5.60401 57.3748 3.66412 58.1711 2.23382 59.5885C0.803531 61.0058 0 62.9282 0 64.9326L0 110.044L10.0624 100.409L10.3141 86.1768H11.9402L11.7225 98.7912L21.2882 89.6692L21.4583 80.0213H23.0844L22.9415 88.0376C25.6221 85.4959 28.0986 83.1092 30.1668 81.1338L30.2757 74.9378H31.9017L31.8337 79.5561C34.1741 77.311 35.6369 75.9222 35.6369 75.9222L36.7391 77.1155L32.9631 80.736L37.5827 80.8169V82.435L31.2962 82.3271C29.2552 84.3093 26.7515 86.696 24.0913 89.2445L32.1875 89.3793V90.9974L22.4516 90.8288C19.288 93.8695 15.9475 97.0383 12.8791 99.9913L25.6153 100.214V101.825L11.2326 101.582C6.53819 106.086 2.65338 109.794 1.19742 111.183H46.6722C47.6738 111.183 48.6655 110.988 49.5908 110.608C50.5162 110.228 51.3569 109.671 52.0651 108.969C52.7733 108.268 53.3351 107.434 53.7184 106.517C54.1017 105.601 54.299 104.618 54.299 103.625V57.3748H7.62675Z" fill="#152B53"/>
<path d="M104.237 65.2562C99.7944 60.8492 93.9471 58.1051 87.6916 57.4918C81.4361 56.8785 75.1596 58.4339 69.9318 61.8929C64.7039 65.3518 60.8484 70.5003 59.0221 76.4609C57.1959 82.4214 57.5121 88.8251 59.9168 94.5805C62.3215 100.336 66.6658 105.087 72.2094 108.023C77.753 110.96 84.1528 111.901 90.318 110.685C96.4832 109.47 102.032 106.173 106.019 101.358C110.006 96.5417 112.185 90.5048 112.183 84.2756C112.188 80.743 111.488 77.2444 110.124 73.9805C108.761 70.7167 106.76 67.7518 104.237 65.2562ZM100.155 92.0222C99.9198 92.5113 99.6444 92.9803 99.3315 93.4245C97.8728 95.6855 95.8869 97.5658 93.5413 98.9069C91.1957 100.248 88.5591 101.011 85.8537 101.131C85.5899 101.165 85.3237 101.178 85.0577 101.171C84.7827 101.178 84.5075 101.164 84.2345 101.131C81.53 101.007 78.8949 100.243 76.5499 98.9017C74.2049 97.561 72.2184 95.6828 70.7567 93.4245C70.4438 92.9803 70.1684 92.5113 69.9335 92.0222C68.6773 89.6357 68.0213 86.984 68.0213 84.2924C68.0213 81.6008 68.6773 78.9491 69.9335 76.5627C70.1707 76.0809 70.4389 75.6148 70.7363 75.167C72.1995 72.9024 74.1882 71.0176 76.5364 69.67C78.8846 68.3224 81.5241 67.551 84.2345 67.4204C84.5039 67.3977 84.7747 67.3977 85.0441 67.4204C85.3103 67.412 85.5768 67.4278 85.8401 67.4676C88.5551 67.5805 91.2025 68.3412 93.5573 69.6852C95.9121 71.0292 97.9046 72.9167 99.3655 75.1873C99.6649 75.639 99.937 76.1109 100.189 76.5829C101.431 78.9607 102.084 81.5978 102.094 84.2756C102.098 86.973 101.442 89.6312 100.182 92.0222H100.155Z" fill="#152B53"/>
<path d="M90.6842 86.5881L89.861 87.9837L97.9708 92.6087C96.654 94.6306 94.8698 96.3121 92.766 97.514C90.6622 98.7158 88.2996 99.4033 85.8741 99.5193V90.2625H84.2549V99.5193C81.8228 99.408 79.4526 98.7228 77.3415 97.5208C75.2304 96.3189 73.4394 94.6348 72.1174 92.6087L80.2068 87.9837L79.3836 86.5881L71.3214 91.2131C70.2058 89.0749 69.6236 86.7029 69.6236 84.2958C69.6236 81.8887 70.2058 79.5167 71.3214 77.3784L79.404 82.0035L80.2272 80.6012L72.1174 75.9761C73.4352 73.9536 75.2192 72.2704 77.3224 71.0653C79.4257 69.8603 81.7878 69.1679 84.2141 69.0453V78.3021H85.8333V69.0453C88.2686 69.1534 90.642 69.8393 92.7541 71.0454C94.8663 72.2514 96.6553 73.9424 97.9708 75.9761L89.8814 80.6012L90.7046 82.0035L98.7872 77.3784C99.9028 79.5167 100.485 81.8887 100.485 84.2958C100.485 86.7029 99.9028 89.0749 98.7872 91.2131L90.6842 86.5881Z" fill="#152B53"/>
<path d="M115.789 57.3815V111.19H122.872V91.6918H124.505V111.183H142.126V85.7655H143.752V111.183H151.719V77.5335H153.352V111.244H170.088V57.3815H115.789ZM134.159 111.19H132.533V81.6394H134.159V111.19ZM163.033 111.19H161.38V71.4657H163.006L163.033 111.19Z" fill="#152B53"/>
<path d="M135.54 28.5256V53.815H150.358V28.5256H135.54ZM147.786 41.4636C147.567 41.4636 147.353 41.3991 147.17 41.2783C146.988 41.1576 146.846 40.986 146.762 40.7852C146.678 40.5843 146.656 40.3634 146.699 40.1502C146.741 39.937 146.847 39.7412 147.002 39.5875C147.157 39.4338 147.355 39.3292 147.57 39.2868C147.785 39.2444 148.008 39.2661 148.211 39.3493C148.413 39.4325 148.586 39.5733 148.708 39.7541C148.83 39.9348 148.895 40.1472 148.895 40.3646C148.895 40.6514 148.782 40.927 148.58 41.1323C148.378 41.3376 148.103 41.4565 147.813 41.4636H147.786Z" fill="#152B53"/>
<path d="M162.135 7.88144C158.337 4.12084 153.5 1.56032 148.234 0.523489C142.968 -0.513343 137.51 0.020059 132.55 2.05628C127.59 4.0925 123.35 7.54013 120.367 11.9634C117.384 16.3868 115.791 21.5872 115.789 26.9075V53.815H133.914V26.9075H151.964V53.815H170.088V26.9075C170.093 23.3733 169.392 19.8732 168.027 16.6081C166.662 13.343 164.66 10.3773 162.135 7.88144Z" fill="#152B53"/>
<path d="M108.305 41.4366C110.834 37.5734 112.303 33.1232 112.564 28.5256H95.2494L108.305 41.4366Z" fill="#152B53"/>
<path d="M100.264 13.6122C99.5666 13.6122 98.8852 13.817 98.3056 14.2008C97.7261 14.5845 97.2744 15.1299 97.0076 15.7681C96.7409 16.4062 96.6711 17.1084 96.8071 17.7859C96.9431 18.4633 97.2787 19.0856 97.7716 19.574C98.2645 20.0625 98.8924 20.3951 99.5761 20.5298C100.26 20.6646 100.968 20.5954 101.612 20.3311C102.256 20.0668 102.807 19.6191 103.194 19.0448C103.581 18.4705 103.788 17.7953 103.788 17.1046C103.786 16.1789 103.414 15.2916 102.754 14.637C102.093 13.9825 101.198 13.614 100.264 13.6122Z" fill="#152B53"/>
<path d="M85.4727 8.2186e-06C80.8292 -0.0035878 76.2624 1.17294 72.2086 3.41717C68.1549 5.6614 64.7496 8.89834 62.3183 12.8187C59.8869 16.739 58.5107 21.2117 58.3212 25.8094C58.1317 30.4071 59.1352 34.9761 61.2358 39.0798C63.3365 43.1836 66.464 46.685 70.3196 49.2493C74.1751 51.8137 78.6299 53.3554 83.2582 53.7271C87.8865 54.0988 92.5337 53.288 96.7557 51.3723C100.978 49.4567 104.633 46.5 107.373 42.785L91.3442 26.9075H112.619V8.2186e-06H85.4727ZM100.264 22.2016C99.245 22.2016 98.2492 21.9022 97.4023 21.3414C96.5553 20.7806 95.8952 19.9835 95.5054 19.0509C95.1155 18.1184 95.0135 17.0922 95.2123 16.1021C95.411 15.1121 95.9015 14.2027 96.6218 13.489C97.3421 12.7752 98.2598 12.2891 99.2588 12.0922C100.258 11.8952 101.293 11.9963 102.235 12.3826C103.176 12.7689 103.98 13.423 104.546 14.2624C105.112 15.1017 105.414 16.0884 105.414 17.0978C105.414 18.452 104.871 19.7509 103.906 20.7091C102.94 21.6673 101.63 22.2065 100.264 22.2083V22.2016Z" fill="#152B53"/>
<path d="M51.8021 33.1574C50.3573 32.209 48.7395 31.5495 47.0396 31.2157L46.264 31.0606L48.516 19.7947L47.3798 18.6687L45.7605 17.199L44.5291 15.9584L43.3249 17.1518L41.6648 18.689L40.549 19.7947L42.801 31.0606L41.9778 31.2157C40.2761 31.5437 38.6572 32.2037 37.2153 33.1574L36.5349 33.6293L30.092 24.0826H28.4796L26.2888 24.177H24.5335V25.8692L24.4451 28.1009V29.665L34.0789 36.0362L33.6026 36.7104C32.6463 38.1231 31.9869 39.7121 31.6636 41.3827L31.4799 42.2187L20.118 39.9871L18.975 41.1265L17.4715 42.7311L16.2468 43.9514L17.4715 45.1717L20.1384 47.9292L31.4799 45.6908L31.6636 46.5201C31.9818 48.1922 32.6416 49.7822 33.6026 51.1924L34.0789 51.8666L31.1397 53.8083H54.2717V30.9258L52.4484 33.6226L51.8021 33.1574Z" fill="#152B53"/>
<path d="M15.9067 15.7765C10.8579 20.7649 6.85351 26.6928 4.12373 33.2195C1.39395 39.7463 -0.0074576 46.7432 2.9845e-05 53.8084H28.1122L31.7589 51.3947C31.057 50.226 30.5277 48.9637 30.1873 47.6461L19.5738 49.7227L17.7913 47.963L16.2469 46.3382L13.852 43.9717L16.2673 41.5783L17.7708 39.9737L19.5738 38.1938L30.1873 40.2906C30.5263 38.9662 31.0556 37.697 31.7589 36.5218L22.7578 30.5618V28.0807L22.8531 25.8222V22.5051H26.2548L28.4456 22.4107H30.9969L37.0112 31.3304C38.1975 30.6294 39.4812 30.1046 40.8212 29.773L38.6985 19.2554L40.481 17.4688L42.1411 15.9585L44.5291 13.5853L46.9444 15.9788L48.5432 17.4485L50.3461 19.2554L48.2506 29.773C49.5802 30.1104 50.8541 30.6348 52.0334 31.3304L54.333 27.9594V0.000123859C47.194 -0.0150891 40.1226 1.37123 33.5272 4.07905C26.9319 6.78687 20.9431 10.7625 15.9067 15.7765Z" fill="#152B53"/>
</g>
<defs>
<clipPath id="clip0_10_6">
<rect width="172" height="161" fill="white"/>
</clipPath>
</defs>
</svg>
