<svg width="40" height="40" viewBox="0 0 40 40" fill="none" xmlns="http://www.w3.org/2000/svg">
<path d="M11.175 17.8486C11.4168 17.6148 11.6867 17.4063 11.9661 17.2201C12.5081 16.8588 13.0009 16.6666 13.3333 16.6666C13.6656 16.6666 14.1585 16.8588 14.7004 17.2201C15.1248 17.5029 15.4477 17.8061 15.4884 17.8456C16.1408 18.4764 17.1954 18.4948 17.8451 17.8451C18.4959 17.1943 18.4959 16.139 17.8451 15.4881C17.4538 15.0974 17.0086 14.7527 16.5494 14.4465C15.8414 13.9745 14.6676 13.3333 13.3333 13.3333C11.999 13.3333 10.8251 13.9745 10.1171 14.4465C9.65836 14.7523 9.21401 15.0969 8.82266 15.4869C8.18205 16.1292 8.17683 17.2004 8.82143 17.8451C9.47091 18.4946 10.5238 18.4953 11.175 17.8486Z" fill="#0F0F0F"/>
<path d="M14.8147 22.5691C14.3971 21.7599 13.4052 21.4346 12.5884 21.8431C11.7651 22.2548 11.4314 23.2559 11.8431 24.0791C11.9805 24.3531 12.1555 24.6099 12.339 24.8546C12.6437 25.2609 13.1036 25.7841 13.7509 26.3019C15.0668 27.3546 17.0956 28.3338 20.0004 28.3338C22.9052 28.3338 24.9341 27.3546 26.2499 26.3019C26.8972 25.7841 27.3572 25.2609 27.6619 24.8546C27.8461 24.6091 28.0136 24.3523 28.1569 24.0809C28.5646 23.2684 28.2254 22.2496 27.4124 21.8431C26.5956 21.4346 25.6037 21.7599 25.1862 22.5691C25.1632 22.6106 24.8496 23.1534 24.1676 23.6991C23.4002 24.3129 22.0956 25.0004 20.0004 25.0004C17.9052 25.0004 16.6007 24.3129 15.8333 23.6991C15.1513 23.1534 14.8377 22.6106 14.8147 22.5691Z" fill="#0F0F0F"/>
<path fill-rule="evenodd" clip-rule="evenodd" d="M20.0001 38.3334C30.1252 38.3334 38.3334 30.1252 38.3334 20.0001C38.3334 9.87486 30.1252 1.66675 20.0001 1.66675C9.87486 1.66675 1.66675 9.87486 1.66675 20.0001C1.66675 30.1252 9.87486 38.3334 20.0001 38.3334ZM20.0001 34.9887C11.7221 34.9887 5.01146 28.2781 5.01146 20.0001C5.01146 11.7221 11.7221 5.01146 20.0001 5.01146C28.2781 5.01146 34.9887 11.7221 34.9887 20.0001C34.9887 28.2781 28.2781 34.9887 20.0001 34.9887Z" fill="#0F0F0F"/>
<path d="M24.5084 17.8486C24.7503 17.6148 25.0203 17.4063 25.2996 17.2201C25.8416 16.8588 26.3344 16.6666 26.6668 16.6666C26.9991 16.6666 27.4919 16.8588 28.0339 17.2201C28.4583 17.5029 28.7813 17.8061 28.8219 17.8456C29.4743 18.4764 30.5289 18.4948 31.1786 17.8451C31.8294 17.1943 31.8294 16.139 31.1786 15.4881C30.7873 15.0974 30.3421 14.7527 29.8829 14.4465C29.1749 13.9745 28.0011 13.3333 26.6668 13.3333C25.3324 13.3333 24.1586 13.9745 23.4506 14.4465C22.9918 14.7523 22.5474 15.0969 22.1561 15.4869C21.5156 16.1292 21.5103 17.2004 22.1549 17.8451C22.8044 18.4946 23.8573 18.4953 24.5084 17.8486Z" fill="#0F0F0F"/>
</svg>
