<svg width="105" height="105" viewBox="0 0 105 105" fill="none" xmlns="http://www.w3.org/2000/svg">
<g id="students-on-lecture-svgrepo-com 1" clip-path="url(#clip0_35_545)">
<path id="Vector" d="M19.732 101.497C18.3815 101.497 17.2866 100.402 17.2866 99.0518V90.0466H13.613C12.2625 90.0466 11.1676 88.9517 11.1676 87.6012C11.1676 86.2508 12.2625 85.1558 13.613 85.1558H19.6782C19.714 85.1552 19.75 85.1552 19.7861 85.1558H99.6253C100.976 85.1558 102.071 86.2508 102.071 87.6012C102.071 88.9517 100.976 90.0466 99.6253 90.0466H22.1774V99.0518C22.1774 100.402 21.0828 101.497 19.732 101.497ZM2.44511 90.0482C2.13913 90.0482 1.82765 89.9904 1.52655 89.8681C0.275117 89.3604 -0.327676 87.9341 0.180052 86.6827L6.82606 70.303C9.76177 63.0695 15.024 53.4529 26.7803 53.4529H35.5954C41.9287 53.4529 47.1432 56.2716 51.0934 61.8303C51.1986 61.9724 52.252 63.3391 53.1812 64.545C53.8506 65.414 54.5699 66.347 55.1681 67.1249C55.9913 68.1957 55.7905 69.7308 54.7197 70.5543C53.6489 71.3778 52.1138 71.1767 51.2906 70.1059C50.6933 69.3291 49.9756 68.3974 49.3071 67.5299C47.5176 65.2074 47.1878 64.7779 47.1022 64.6569C45.1957 61.974 43.0569 60.1833 40.5565 59.2146L33.1631 69.346C32.7028 69.9766 31.9685 70.3498 31.1878 70.3498C30.4071 70.3498 29.6729 69.9766 29.2125 69.346L21.8192 59.2146C17.5308 60.8793 14.257 64.998 11.3577 72.142L4.712 88.5213C4.32655 89.472 3.41135 90.0482 2.44511 90.0482ZM27.2385 58.3441L31.1881 63.7564L35.1378 58.3441H27.2385ZM68.9596 80.5105H42.0803C40.7298 80.5105 39.6349 79.4155 39.6349 78.0651C39.6349 76.7146 40.7298 75.6197 42.0803 75.6197H68.9596C70.3101 75.6197 71.405 76.7146 71.405 78.0651C71.405 79.4155 70.3104 80.5105 68.9596 80.5105ZM102.555 60.176C101.589 60.176 100.673 59.5998 100.288 58.6494L94.7932 45.1068C92.5165 39.497 89.9681 36.1972 86.6787 34.7826L80.7654 42.8857C80.3051 43.5163 79.5711 43.8896 78.7901 43.8896C78.0091 43.8896 77.2752 43.5163 76.8149 42.8857L70.8991 34.7798C69.0339 35.5776 67.4217 36.9715 65.9731 39.0098C65.8246 39.2185 61.8817 44.4826 60.6284 46.114C59.8055 47.1851 58.2704 47.3859 57.1993 46.5633C56.1285 45.7404 55.9274 44.205 56.7503 43.1342C58.0005 41.5071 61.7997 36.432 61.9997 36.1587C65.3367 31.4626 69.7638 29.0719 75.1456 29.0719H82.4341C92.4101 29.0719 96.8519 37.1736 99.3254 43.2675L104.82 56.8105C105.328 58.0619 104.725 59.4882 103.474 59.9959C103.172 60.1179 102.861 60.176 102.555 60.176ZM76.3576 33.9627L78.7901 37.2955L81.2224 33.9627H76.3576ZM90.9411 55.217H54.1496C52.7991 55.217 51.7042 54.1221 51.7042 52.7716C51.7042 51.4211 52.7991 50.3262 54.1496 50.3262H90.9411C92.2915 50.3262 93.3865 51.4211 93.3865 52.7716C93.3865 54.1221 92.2915 55.217 90.9411 55.217ZM31.1881 49.112C23.8589 49.112 17.8964 43.1492 17.8964 35.82C17.8964 29.7851 21.9399 24.6763 27.4595 23.0605C27.4879 23.0513 27.517 23.0425 27.546 23.0342C28.2118 22.845 28.8916 22.7084 29.5791 22.6252C30.0076 22.5733 30.4432 22.5418 30.8834 22.5317C30.8886 22.5283 30.8925 22.5314 30.8974 22.5311C30.902 22.5308 30.9069 22.5311 30.9112 22.5308C30.9152 22.5308 30.9194 22.5308 30.9234 22.5308C30.9268 22.5305 30.9298 22.5305 30.9341 22.5305C31.0124 22.5289 31.0925 22.5268 31.1692 22.528C31.1741 22.5277 31.1796 22.5277 31.1857 22.528C31.1869 22.528 31.1884 22.528 31.1884 22.528C31.1918 22.528 31.1942 22.5277 31.1979 22.528C31.2046 22.528 31.2111 22.528 31.2178 22.528C31.2214 22.528 31.2251 22.5283 31.2282 22.528C31.2315 22.528 31.2349 22.528 31.2386 22.528C31.2422 22.528 31.2468 22.528 31.2496 22.528C31.2532 22.528 31.2575 22.5283 31.2612 22.5283C31.2652 22.5283 31.2694 22.5283 31.2734 22.5283H31.2749C38.0417 22.5711 43.6435 27.6136 44.3961 34.3201C44.4517 34.8122 44.4801 35.3129 44.4801 35.8197C44.4795 43.1495 38.517 49.112 31.1881 49.112ZM26.5052 28.8482C24.2637 30.3585 22.7869 32.9198 22.7869 35.82C22.7869 40.4525 26.5556 44.2212 31.1878 44.2212C35.2124 44.2212 38.5846 41.3769 39.4004 37.5926C39.2693 37.5966 39.1378 37.5985 39.0064 37.5985C33.2725 37.5985 28.3609 34.0077 26.5052 28.8482ZM31.1952 27.4191C32.4292 30.5456 35.4624 32.7015 38.9911 32.7079C37.7617 29.6362 34.7685 27.4537 31.271 27.4194C31.267 27.4194 31.2627 27.4194 31.2587 27.4194C31.2551 27.4198 31.2511 27.4198 31.2468 27.4194C31.2432 27.4191 31.2389 27.4188 31.2346 27.4191C31.2306 27.4191 31.2266 27.4191 31.2227 27.4191C31.2184 27.4191 31.2144 27.4191 31.2104 27.4191C31.2056 27.4188 31.2007 27.4188 31.1952 27.4191ZM78.7901 26.3297C72.4969 26.3297 67.3768 21.2096 67.3768 14.9164C67.3768 8.62282 72.4969 3.50244 78.7901 3.50244C85.0837 3.50244 90.2038 8.62282 90.2038 14.9164C90.2038 21.2096 85.0834 26.3297 78.7901 26.3297ZM78.7901 8.39326C75.1936 8.39326 72.2676 11.3195 72.2676 14.9164C72.2676 18.513 75.1936 21.4389 78.7901 21.4389C82.387 21.4389 85.313 18.513 85.313 14.9164C85.313 11.3198 82.3867 8.39326 78.7901 8.39326Z" fill="#1A3668"/>
</g>
<defs>
<clipPath id="clip0_35_545">
<rect width="105" height="105" fill="white"/>
</clipPath>
</defs>
</svg>
